<?xml version="1.0" standalone="no"?><!DOCTYPE svg PUBLIC "-//W3C//DTD SVG 1.1//EN" "http://www.w3.org/Graphics/SVG/1.1/DTD/svg11.dtd"><svg class="icon" width="200px" height="75.82px" viewBox="0 0 2701 1024" version="1.1" xmlns="http://www.w3.org/2000/svg"><path fill="#ffffff" d="M524.8 67.047619C275.504762 67.047619 73.142857 269.409524 73.142857 518.704762c0 249.295238 202.361905 451.657143 451.657143 451.657143 249.295238 0 451.657143-202.361905 451.657143-451.657143C976.457143 269.409524 774.095238 67.047619 524.8 67.047619L524.8 67.047619zM524.8 883.809524c-201.752381 0-365.104762-163.352381-365.104762-365.104762C159.695238 316.952381 323.047619 153.6 524.8 153.6c201.752381 0 365.104762 163.352381 365.104762 365.104762C889.904762 720.457143 726.552381 883.809524 524.8 883.809524L524.8 883.809524zM805.180952 478.47619c-32.304762-14.019048-71.314286-21.942857-114.590476-21.942857-42.666667 0-82.285714 8.533333-113.980952 21.942857 2.438095-60.952381 52.419048-109.714286 113.980952-109.714286S802.742857 417.52381 805.180952 478.47619L805.180952 478.47619zM470.552381 478.47619c-32.304762-14.019048-71.314286-21.942857-114.590476-21.942857-42.666667 0-82.285714 8.533333-114.590476 21.942857 2.438095-60.952381 52.419048-109.714286 114.590476-109.714286C417.52381 368.761905 468.114286 417.52381 470.552381 478.47619L470.552381 478.47619zM377.904762 565.638095c0-18.285714-14.628571-32.914286-32.914286-32.914286-14.628571 0-26.209524 9.142857-30.47619 21.942857-4.266667-12.8-16.457143-21.942857-30.47619-21.942857-18.285714 0-32.914286 14.628571-32.914286 32.914286 0 14.019048 9.142857 26.209524 21.942857 30.47619-12.8 4.266667-21.942857 16.457143-21.942857 30.47619 0 18.285714 14.628571 32.914286 32.914286 32.914286 14.628571 0 26.209524-9.142857 30.47619-21.942857 4.266667 12.8 16.457143 21.942857 30.47619 21.942857 18.285714 0 32.914286-14.628571 32.914286-32.914286 0-14.019048-9.142857-26.209524-21.942857-30.47619C368.761905 591.847619 377.904762 579.657143 377.904762 565.638095L377.904762 565.638095zM314.514286 616.228571c-3.047619-9.142857-10.971429-16.457143-20.114286-20.114286 9.752381-3.047619 17.066667-10.971429 20.114286-20.114286 3.047619 9.142857 10.971429 16.457143 20.114286 20.114286C325.485714 599.161905 317.561905 607.085714 314.514286 616.228571L314.514286 616.228571zM314.514286 616.228571M1284.87619 727.161905 1284.87619 462.628571l-168.228571 0c-7.314286 0-13.409524-1.828571-18.285714-6.095238s-7.314286-9.142857-7.92381-14.628571c0-5.485714 1.828571-10.971429 7.314286-15.847619 4.87619-4.87619 10.971429-7.314286 18.895238-7.314286l168.228571 0L1284.87619 330.361905c0-6.704762 2.438095-12.8 6.704762-18.285714s9.752381-7.92381 15.847619-7.92381c6.095238 0 11.580952 1.828571 16.457143 7.314286 4.87619 4.87619 7.314286 11.580952 7.314286 18.895238l0 88.380952L1499.428571 418.742857c6.704762 0 12.8 2.438095 17.67619 6.704762 4.87619 4.87619 7.314286 9.752381 7.314286 15.847619 0 6.095238-2.438095 10.971429-7.314286 15.238095-4.87619 4.266667-10.361905 6.095238-17.67619 6.095238l-169.447619 0 0 264.533333 193.219048 0c6.704762 0 12.8 2.438095 17.67619 6.704762s7.92381 9.142857 7.92381 15.238095c0 5.485714-1.828571 10.971429-7.314286 15.238095-4.87619 4.87619-10.971429 6.704762-18.895238 6.704762L1078.857143 771.047619c-7.314286 0-13.409524-1.828571-18.285714-6.095238-4.87619-4.266667-7.92381-8.533333-8.533333-14.628571-0.609524-5.485714 1.828571-10.971429 6.704762-15.847619 4.87619-4.87619 11.580952-7.314286 20.114286-7.314286L1284.87619 727.161905zM1902.32381 740.571429c12.190476-33.52381 20.114286-56.685714 23.771429-68.87619l9.752381-32.914286c2.438095-7.92381 5.485714-13.409524 9.142857-17.066667s7.92381-5.485714 14.019048-6.704762c6.095238-1.219048 10.971429 0.609524 16.457143 4.266667 4.87619 3.657143 7.92381 7.92381 8.533333 12.8 0.609524 4.87619 0 10.971429-1.828571 17.67619-4.266667 15.847619-14.628571 45.714286-31.085714 90.209524l121.904762 0c5.485714 0 10.971429 1.828571 15.238095 5.485714 4.266667 3.657143 6.704762 8.533333 7.314286 14.019048 0.609524 5.485714-1.828571 10.361905-6.095238 15.238095-4.266667 4.266667-9.752381 6.704762-16.457143 6.704762l-446.780952 0c-6.704762 0-12.190476-1.828571-15.847619-6.095238-4.266667-4.266667-6.095238-9.142857-6.095238-15.238095 0-5.485714 2.438095-10.361905 6.704762-14.019048 4.266667-3.657143 9.142857-6.095238 15.238095-6.095238L1902.32381 739.961905zM1632.304762 328.533333l433.980952 0c5.485714 0 10.361905 1.828571 15.238095 6.095238 4.266667 4.266667 6.704762 9.142857 6.704762 15.238095 0 6.095238-1.828571 11.580952-6.704762 15.847619s-9.752381 6.704762-15.238095 6.704762l-433.980952 0c-6.704762 0-12.8-2.438095-17.066667-7.92381-4.266667-5.485714-6.095238-11.580952-4.87619-18.285714 0.609524-4.87619 3.657143-9.142857 7.314286-12.8S1626.819048 328.533333 1632.304762 328.533333zM1651.2 538.209524 1651.2 481.52381c0-10.361905 1.219048-19.504762 3.657143-27.428571 2.438095-7.92381 7.314286-15.847619 14.019048-22.552381s21.942857-10.971429 45.714286-10.971429l266.361905 0c11.580952 0 21.942857 1.219048 31.085714 3.047619 9.142857 2.438095 15.847619 4.87619 19.504762 7.92381 3.657143 3.047619 7.314286 8.533333 10.971429 16.457143 3.047619 7.92381 4.87619 18.285714 4.87619 31.085714l0 58.514286c0 10.971429-1.219048 20.114286-4.266667 28.647619-3.047619 7.92381-7.92381 15.238095-14.628571 20.72381-6.704762 5.485714-22.552381 8.533333-46.933333 8.533333l-266.361905 0c-21.333333 0-35.961905-3.047619-43.27619-9.142857-7.314286-6.095238-12.8-13.409524-15.847619-21.942857C1653.028571 556.495238 1651.2 547.352381 1651.2 538.209524zM1974.247619 554.057143c13.409524 0.609524 21.333333-1.219048 24.990476-4.266667 3.657143-3.657143 5.485714-11.580952 5.485714-23.771429l0-34.742857c0-12.190476-2.438095-20.72381-6.704762-24.990476-4.266667-4.87619-15.238095-6.704762-32.914286-6.704762l-243.809524 0c-15.238095 0-23.161905 2.438095-24.990476 7.92381-1.828571 5.485714-2.438095 11.580952-2.438095 18.285714l0 41.447619c0 7.314286 0.609524 12.8 1.828571 16.457143 1.219048 3.657143 3.657143 6.095238 6.095238 7.92381 2.438095 1.828571 10.971429 2.438095 24.990476 2.438095L1974.247619 554.057143zM1717.638095 649.142857c-2.438095-5.485714-4.266667-10.361905-5.485714-15.238095-0.609524-4.87619 0.609524-9.752381 3.657143-14.019048 3.047619-4.266667 8.533333-6.704762 15.238095-7.314286 6.704762-0.609524 13.409524 1.219048 18.895238 5.485714 3.657143 3.047619 8.533333 10.971429 15.238095 24.380952 6.704762 12.8 11.580952 24.380952 14.628571 34.742857 3.657143 10.361905 5.485714 19.504762 6.095238 27.428571s-0.609524 14.628571-3.657143 19.504762-7.92381 7.314286-14.019048 7.92381c-6.095238 0.609524-11.580952-1.219048-15.238095-4.87619-3.047619-2.438095-7.92381-11.580952-14.019048-26.819048C1732.87619 683.885714 1725.561905 666.819048 1717.638095 649.142857zM2633.752381 713.752381c-0.609524 15.238095-1.828571 26.819048-3.657143 34.133333-1.828571 7.92381-6.095238 15.238095-11.580952 21.942857s-17.67619 10.971429-34.742857 11.580952c-7.314286 0.609524-21.333333 0-42.666667-1.219048-21.333333-1.219048-33.52381-5.485714-36.571429-12.8-3.047619-7.314286-3.657143-13.409524-2.438095-18.285714 1.828571-4.87619 4.266667-8.533333 7.92381-9.752381 3.657143-1.219048 7.92381-1.828571 13.409524-1.219048l22.552381 3.657143c6.704762 1.219048 13.409524 1.828571 20.72381 2.438095 8.533333 0.609524 14.628571-0.609524 18.285714-2.438095 3.657143-2.438095 6.095238-5.485714 7.92381-9.142857s2.438095-11.580952 2.438095-23.161905L2595.352381 385.828571c0-14.628571-0.609524-22.552381-1.219048-24.380952-0.609524-1.828571-2.438095-4.266667-4.87619-6.095238-2.438095-1.828571-7.314286-3.047619-15.238095-3.047619l-342.552381 0c-10.361905 0-16.457143 2.438095-17.67619 7.92381s-1.828571 10.361905-1.828571 15.847619l0 376.07619c0 6.095238-1.828571 10.971429-5.485714 15.238095-3.657143 4.266667-7.92381 6.095238-12.8 6.704762-4.87619 0-9.142857-1.828571-12.8-6.095238-3.657143-4.266667-5.485714-9.142857-5.485714-15.238095L2175.390476 362.666667c0-9.752381 0.609524-18.285714 1.828571-24.380952 1.219048-6.704762 4.87619-12.190476 10.361905-17.066667s17.67619-7.314286 35.352381-7.314286l357.180952 0c9.142857 0 18.895238 0.609524 28.647619 1.828571 9.752381 1.219048 17.066667 6.704762 20.72381 17.066667 3.657143 10.361905 5.485714 21.942857 5.485714 35.961905L2634.971429 713.752381zM2328.380952 454.704762c2.438095-7.92381 6.095238-18.895238 10.361905-34.133333 4.266667-14.628571 7.314286-24.990476 9.142857-31.085714 1.828571-6.095238 4.266667-9.752381 6.704762-12.190476s6.704762-3.047619 12.190476-3.047619c5.485714 0 9.752381 1.828571 12.8 5.485714 3.047619 3.657143 4.87619 9.142857 4.87619 15.847619 0 9.752381-4.266667 26.209524-12.190476 48.761905s-18.285714 51.809524-31.695238 86.552381c19.504762 44.495238 30.47619 69.485714 32.304762 74.361905 1.828571 5.485714 4.87619 13.409524 9.142857 24.990476 4.266667 11.580952 6.095238 20.114286 5.485714 26.209524-0.609524 6.095238-4.87619 11.580952-14.019048 17.066667-9.142857 5.485714-16.457143-0.609524-23.161905-17.67619l-7.92381-22.552381c-3.047619-7.92381-10.971429-27.428571-23.161905-58.514286-8.533333 15.238095-17.066667 29.866667-24.380952 42.666667s-15.847619 26.209524-24.380952 38.4-15.238095 21.333333-20.114286 26.819048c-4.87619 5.485714-10.361905 8.533333-15.847619 9.752381-5.485714 1.219048-10.361905-0.609524-14.628571-5.485714-4.266667-4.87619-6.095238-9.752381-5.485714-14.019048 0.609524-4.87619 4.266667-10.971429 10.971429-18.895238s15.847619-21.942857 28.647619-42.057143c12.8-20.114286 21.942857-35.352381 28.038095-46.933333l17.67619-33.52381c-6.704762-12.8-14.019048-24.990476-20.72381-37.790476s-11.580952-21.942857-15.238095-27.428571l-21.942857-32.914286c-4.266667-6.704762-6.704762-12.8-6.704762-17.67619 0-4.87619 1.828571-9.752381 6.095238-14.019048 4.266667-4.266667 9.142857-6.095238 14.628571-4.266667 5.485714 1.828571 12.190476 8.533333 21.333333 20.114286 8.533333 11.580952 12.8 17.67619 13.409524 18.285714l28.647619 47.542857C2322.285714 472.380952 2325.942857 462.628571 2328.380952 454.704762zM2513.67619 543.695238c7.314286 16.457143 15.238095 32.914286 23.771429 50.590476 8.533333 17.67619 14.019048 28.647619 15.847619 32.914286s5.485714 12.8 10.971429 25.6 7.314286 21.333333 6.095238 26.209524c-1.219048 4.266667-3.657143 8.533333-7.92381 11.580952-4.266667 3.047619-9.142857 3.657143-15.238095 1.828571-4.87619-1.219048-8.533333-3.657143-11.580952-7.92381-3.047619-4.266667-6.095238-10.971429-9.142857-21.333333-3.047619-10.361905-9.752381-24.990476-18.895238-45.104762l-14.019048-29.866667c-10.361905 16.457143-20.114286 32.304762-29.257143 48.152381s-17.67619 28.647619-24.990476 39.009524c-7.314286 10.361905-14.019048 19.504762-21.333333 27.428571-7.314286 7.92381-13.409524 13.409524-18.895238 15.238095s-10.971429 0.609524-15.847619-4.266667c-4.87619-4.87619-6.704762-9.752381-5.485714-14.628571 1.219048-4.87619 4.87619-11.580952 10.971429-19.504762 6.704762-7.92381 15.847619-20.72381 28.038095-39.619048s20.114286-31.085714 23.771429-37.790476l31.085714-55.466667c-17.67619-32.914286-29.866667-54.247619-35.961905-64-6.095238-9.752381-12.8-19.504762-19.504762-28.647619-6.704762-9.142857-11.580952-15.847619-14.019048-19.504762-2.438095-3.657143-3.657143-7.92381-3.657143-12.190476 0-4.266667 3.047619-9.142857 9.142857-14.628571 6.704762-5.485714 13.409524-5.485714 20.114286 0.609524 6.704762 6.095238 14.019048 15.238095 21.942857 27.428571l22.552381 34.742857 17.67619 29.866667c6.095238-17.67619 11.580952-34.742857 16.457143-49.980952 4.87619-15.238095 8.533333-28.647619 10.971429-39.619048 2.438095-10.971429 4.87619-17.67619 7.314286-20.72381s6.095238-4.266667 11.580952-5.485714c4.87619-0.609524 9.752381 0.609524 14.019048 4.266667 4.266667 3.657143 6.095238 9.142857 6.704762 15.847619 0 6.704762-3.047619 20.72381-9.752381 42.057143C2541.104762 468.114286 2529.52381 500.419048 2513.67619 543.695238z" /></svg>