<?xml version="1.0" standalone="no"?><!DOCTYPE svg PUBLIC "-//W3C//DTD SVG 1.1//EN" "http://www.w3.org/Graphics/SVG/1.1/DTD/svg11.dtd"><svg class="icon" width="200px" height="116.30px" viewBox="0 0 1761 1024" version="1.1" xmlns="http://www.w3.org/2000/svg"><path fill="#ffffff" d="M204.867525 208.49645c26.814813-60.946323 51.726892-117.341779 76.658588-173.75685 13.417214-29.816032 31.385297-39.56509 59.396674-32.405319 42.801699 11.024086 56.885851 41.487439 37.034651 84.93646-42.154377 97.274805-85.583781 193.804208-128.38548 290.510155-19.792353 44.076726-38.329294 88.271148-59.396675 131.602473-17.889619 35.661544-45.37137 43.429405-77.933615 23.990136-24.264758-14.260694-31.385297-41.507055-17.889619-74.54008 14.064536-33.719578 28.109457-68.086478 44.724048-100.491798 9.572516-18.811562 7.669782-33.072257-3.197377-51.216881C94.352049 237.743624 55.453896 167.71518 14.5157 98.353674A95.332839 95.332839 0 0 1 1.098485 64.634096c-4.472405-22.695493 5.100111-43.429405 24.264758-55.76775 21.086996-12.966051 42.801699-11.671407 61.319024 3.923162 9.592131 7.846324 15.96727 18.144625 22.362024 28.521389 31.385297 55.120428 62.594051 108.946212 95.823234 167.303248z m988.813395 36.308866c0 38.898152 0.647322 71.970409 0 105.689987-0.627706 33.052641-15.319948 48.627594-45.97946 49.922238-36.42656 1.294643-55.571591-12.318729-55.571591-46.685629q-1.961581-141.998853 0-283.97809c0.647322-36.308865 19.792353-52.531141 52.374214-51.216881 30.01219 1.294643 47.901809 18.811562 48.549131 48.627594 0.627706 33.719578 0 67.439157 0 101.786441 10.847543-0.647322 14.04492-7.846324 18.517325-12.96605 37.701588-38.898152 75.38356-79.110564 113.771701-118.008717 33.209567-33.719578 82.386404-21.381234 91.978536 22.048171 5.747432 25.28478-6.394754 45.390986-23.637052 62.240967-21.126228 21.498928-43.507868 41.546287-65.22257 62.947136-22.362024 21.381234-22.362024 21.381234 0.647322 43.429405 24.264758 22.695493 47.901809 45.390986 72.186183 68.086478a78.875174 78.875174 0 0 1 15.339564 17.516919c15.319948 24.617842 13.417214 56.395455-4.472405 71.323087-19.164647 16.222275-51.746508 14.908016-72.813889-3.923162a11238.143066 11238.143066 0 0 1-127.130068-119.30336c-3.923162-5.178574-8.94481-9.807905-18.536941-17.497303z m-351.319167-78.463242v88.82039c0.647322 42.801699 27.462135 70.028444 67.713778 70.616918 38.957 0 68.341484-28.521389 68.988806-70.028444 0.647322-61.593645 0-122.539969 0.647321-184.153229 0.647322-33.719578 17.242297-53.158847 45.37137-54.453491 26.167491-1.294643 43.429405 12.318729 48.529515 38.270447a137.565679 137.565679 0 0 1 3.197378 27.874067c0 55.767749 0.647322 111.515883 0 166.63631-1.275028 85.583781-40.232027 133.544438-123.28537 147.824749a234.408936 234.408936 0 0 1-107.886958-5.19819c-63.869079-18.144625-98.37329-61.593645-100.295639-130.974767-1.961581-62.888289-1.275028-125.776577 0-188.684482 0.647322-31.777613 13.417214-50.56956 34.504211-55.767749 35.131917-8.434799 60.043996 11.024086 61.966345 51.216881 1.275028 33.072257 0 65.477576 0.647322 97.922126z m589.572802 2.569671c0-35.014222-1.275028-69.361506 0-104.395344 1.275028-33.072257 19.792353-49.274916 50.451865-47.980273 27.462135 1.294643 43.429405 19.458884 44.076726 53.158847 0.647322 60.946323 0 121.245325 0.647322 182.191648 0 34.3669 15.339564 59.004358 42.154377 68.655337 47.274103 18.144625 93.273179-12.318729 94.528591-63.53561 1.275028-55.767749 0-111.515883 0.647321-167.283633a201.552453 201.552453 0 0 1 2.569672-34.229589c4.472405-24.009752 19.792353-36.956187 42.154377-38.270446 24.264758-1.294643 40.879349 10.376764 47.901809 33.719578 1.275028 3.923162 3.197377 8.434799 3.197377 12.299113 0 70.028444 3.923162 140.704209-1.275028 210.065716-5.727817 75.226633-44.704432 110.868561-123.285369 123.834612a236.233207 236.233207 0 0 1-114.34056-7.846325c-54.296564-17.516919-87.525747-60.946323-90.075802-119.303359-0.647322-33.072257 0.647322-66.693756 0.647322-101.158736zM551.066966 2.373513c-100.923345-1.294643-183.957071 88.82039-183.957071 199.04163 0 116.714073 75.363944 198.394308 183.309749 198.394308 110.515477 0 183.329365-78.463242 183.976687-197.099665 0-109.573918-81.758698-199.708567-183.329365-200.355889z m52.962689 285.292349c-31.385297 34.347284-77.933615 33.719578-108.593128-0.647322-39.604322-43.429405-39.604322-121.245325 0-164.772809 31.385297-34.3669 77.286294-35.014222 108.593128-0.647321 21.714702 23.342815 30.01219 51.883819 30.01219 82.994494s-8.297488 59.65168-30.01219 82.994495z m234.565862 596.320641c-2.550055 22.048171-4.472405 42.801699-6.375138 63.555226-1.961581 22.028555-14.692242 28.521389-35.131917 28.521389-19.811969-0.647322-24.284373-12.966051-24.284373-29.168711 0.647322-61.593645 1.275028-123.206906 1.275027-184.780935 0-14.908016 6.394754-16.849981 18.536941-16.849981 21.086996 0.647322 42.801699-0.647322 63.869079 0.647321 17.889619 1.294643 21.714702-6.473217 21.086997-22.695493-0.647322-15.555338-0.647322-25.932102-21.086997-25.284779-41.507055 1.294643-83.681048 0-125.207718 0.647321-15.96727 0.647322-21.086996-4.550868-20.439675-20.753527 1.275028-27.874067 0.627706-55.120428 0.627706-82.994495 0-7.846324 0.647322-14.927632-10.219837-16.849981-33.209567-6.492833-42.154377 0-42.154377 34.347284v15.574954c-0.549243 21.950092 6.473217 51.099187-4.472405 65.379497-11.514481 14.908016-41.507055 3.236609-63.241373 4.531252h-5.100111c-20.45929-3.236609-18.536941 10.376764-19.164647 23.990136-0.647322 14.28031 0 25.28478 19.811969 23.990136 17.870003-1.275028 35.759623 0 53.649242-0.647321 13.417214-0.647322 19.164647 3.236609 15.967269 17.516918-3.923162 17.497303-5.100111 36.308865-8.925193 53.806169-15.986886 64.182932-49.196453 118.008716-100.29564 167.283632 0-53.158847 1.275028-100.491797 0-147.824748-2.569671-69.381122 0.627706-137.447985 30.01219-202.945176 15.96727-35.014222 12.142187-36.308865-23.009345-49.902622-13.417214-5.19819-17.242297-2.589287-21.086997 10.376764a730.414322 730.414322 0 0 1-98.902917 204.847909c-3.197377 5.19819-10.867159 10.376764-2.550055 17.516919 10.847543 9.807905 20.439675 23.990136 33.209567 27.246361 8.94481 2.589287 14.04492-16.869597 21.714703-25.304396 1.961581-2.589287 3.197377-6.473217 8.297487-3.236608v173.776465c0 36.308865 0 33.719578 35.131917 35.641928 26.167491 1.294643 12.142187-20.733912 20.439675-30.482969 8.94481 7.140155 17.889619 12.985667 24.912079 20.106205 8.94481 8.434799 14.692242 6.473217 23.009346-2.589287 57.474325-63.53561 95.175913-136.153341 107.318099-222.40406 1.961581-14.260694 1.275028-29.816032 9.592132-44.743664 9.592131 8.434799 6.375138 17.516919 6.375138 25.28478v164.047024c0 77.81592 8.94481 86.878425 84.956076 86.878425 56.218913 0 72.833505-14.908016 78.580937-71.950793 3.923162-51.216881 3.923162-51.216881-46.626782-64.182932z m512.384588-129.111265h-17.870004c-40.898965-0.647322-33.876505 5.19819-36.406944-35.661544-1.275028-23.323199 5.747432-33.719578 29.423716-29.16871 6.394754 1.294643 13.417214-0.647322 20.45929 0.647322 19.145031 2.589287 15.319948-11.024086 15.319948-21.40085 0-11.00447 3.197377-23.323199-15.319948-22.028555-15.339564 0.647322-34.504211 6.473217-44.724048-3.256225-11.494865-11.024086-4.472405-31.110676-3.923162-47.33295 0.647322-24.617842-16.614592-16.20266-28.109457-17.497303s-24.912079-3.923162-22.98973 16.849981a266.971182 266.971182 0 0 1 0 38.898152c-0.647322 17.497303-14.064536 10.376764-23.009345 11.671407-11.514481 1.294643-12.142187-5.884743-10.219838-14.908016a130.582451 130.582451 0 0 0 2.569672-15.555337c4.472405-20.08659-10.867159-18.144625-21.714703-18.791947-10.219837-0.647322-23.009346-8.434799-24.912079 13.613373-2.569671 31.757997-9.592131 62.888289-15.339564 94.665901-4.472405 25.28478-1.275028 30.48297 24.912079 31.110676 22.362024 0.647322 17.242297-18.164241 18.536941-29.16871 3.923162-24.637458 21.714702-15.555338 35.131917-16.849982 17.242297-1.961581 12.769893 11.769486 13.417215 21.40085 1.275028 42.801699 0.647322 42.801699-41.526671 42.801698-10.219837 0-20.439675 0.647322-30.639896 0-19.164647-1.961581-17.261913 10.376764-17.88962 23.342815 0 12.966051-1.275028 23.342815 17.88962 22.695493 30.639896-1.294643 61.319024-0.647322 91.978535-0.647322h91.998152c5.727817 0 13.417214 3.923162 16.614591-6.492833 8.297488-24.637458 0-38.898152-23.637051-38.898153z m-576.19482-119.950682c14.064536 12.318729 27.462135 25.28478 42.154377 37.603509 5.747432 4.531252 10.219837 17.497303 19.811969 9.807905 10.847543-9.08212 19.145031-20.753528 28.737162-31.777613-2.569671-3.923162-3.197377-6.492833-5.119726-7.846324-23.538973-19.458884-47.901809-38.250831-72.166567-57.042777-4.472405-3.923162-7.02246-1.314259-10.867159 1.275028-22.342408 16.849981-22.98973 29.835648-2.550056 47.980272z m351.986105-46.038307c-63.241373 0.647322-126.482746 0-189.704504-0.647322-11.514481 0-16.614592 3.256225-17.261913 16.20266-1.275028 20.753528 1.275028 35.661544 27.462135 31.110675 6.394754-1.294643 13.417214 0.647322 20.439674 0 16.614592-1.961581 21.086996 5.884743 21.086997 22.695493 0.647322 20.733912-3.923162 31.110676-26.167492 27.226745-5.747432-1.294643-12.142187 0.647322-17.889619 0-19.164647-2.589287-26.834429 2.589287-26.187107 24.637458 1.961581 43.429405 0.627706 86.878425 0.627706 129.680124h0.647322v129.680123c0.647322 37.603509 10.219837 48.627594 46.646397 49.922238 42.801699 1.294643 85.583781 1.294643 127.757774 0.647322 37.03465-1.275028 45.97946-11.671407 45.97946-49.274916 0-79.110564 0-157.55419 0.647322-236.645139 0-46.666013 0.647322-46.666013-44.704432-48.627594-6.394754 0-14.692242 4.531252-17.889619-8.434799-6.394754-30.48297 0.627706-40.192796 30.01219-40.192796a166.910932 166.910932 0 0 1 17.889619 0c18.517325 1.961581 15.96727-11.671407 15.319948-22.048171 0-11.024086 7.02246-25.932102-14.692242-25.932101z m-99.648318 68.655337c-0.647322-7.120539-5.747432-21.381234 6.375139-20.753528 15.319948 0.647322 5.119727 16.222275 8.944809 24.637458-3.923162 7.846324 5.119727 23.342815-8.944809 21.40085-12.769893-1.294643-5.747432-16.20266-6.375139-25.28478z m-49.824158 73.265052c11.494865 0 11.494865 6.473217 10.867159 14.908016-2.569671 27.893683-2.569671 56.415071-22.362024 79.757886v-80.424823c0-7.846324 0-14.260694 11.494865-14.260695z m118.812964 212.007681c-1.961581 18.144625 0 35.014222-26.206723 33.719578-27.462135-1.294643-54.296564-0.647322-81.739082-0.647322-25.500554 0-20.45929-18.791947-22.362024-35.014222-2.569671-20.106206 10.219837-17.516919 22.362024-17.516918h81.739082c12.142187 1.294643 28.109457-5.178574 26.206723 19.458884z m-8.317104-211.360359c8.94481 0.647322 8.317104 7.140155 8.317104 12.985666v28.521389c0 7.846324 0.627706 15.555338 0 23.342815-0.647322 5.884743 3.923162 16.20266-5.119726 17.497303-10.219837 1.961581-11.514481-7.846324-12.142187-16.20266-0.627706-18.164241 0-36.308865 0-54.45349 0-5.884743-0.627706-12.318729 8.944809-11.769486z m-7.02246 118.656038c12.142187 1.961581 15.339564 5.884743 15.339564 17.497303-0.647322 13.613373-8.94481 12.318729-17.261913 12.318729-27.462135 0-54.92427-0.647322-81.739083-0.647322-31.954155 0-31.954155 0-28.756778-35.033837 36.406944 14.28031 37.701588 13.613373 48.549131-27.226745 6.375138-24.637458 8.94481-49.294532 10.847543-74.540081 0-4.531252-1.961581-11.671407 5.747433-11.671407 8.94481-0.647322 8.297488 6.473217 8.297488 12.318729 0 18.791947-0.647322 38.250831 0 57.062393 0 30.48297 11.494865 45.37137 38.956999 49.922238z m266.284629-23.931289c-26.167491 0.647322-52.962689 0-79.189028 0-27.462135 0-54.296564 0.647322-81.758698 0-12.142187-0.647322-15.986886 3.923162-15.986886 16.222275 0.647322 46.038307 0 91.429293 0 137.467601 0 23.342815 10.867159 37.603509 34.484595 39.545474a741.732645 741.732645 0 0 0 120.107608 0.647322c29.423716-2.569671 38.329294-12.966051 38.957-43.429405 0.647322-44.076726 0-88.271148 0.647322-132.269411 1.275028-14.908016-3.923162-18.791947-17.242298-18.144624z m-33.209568 77.815921a125.933504 125.933504 0 0 0 0 15.555337c0.647322 64.182932 2.569671 56.415071-54.296563 57.062393-38.34891 0-38.34891 0-38.34891-40.840117 0-64.182932 0-62.888289 60.063612-64.84987 26.814813-1.961581 37.681972 5.884743 32.562246 33.072257z" /></svg>